<svg width="25" height="33" viewBox="0 0 25 33" fill="none" xmlns="http://www.w3.org/2000/svg">
<path d="M2.43766 22.4062C1.90294 21.4826 1.5019 20.5347 1.23454 19.5624C0.967177 18.5902 0.833496 17.5937 0.833496 16.5729C0.833496 13.3159 1.9637 10.5451 4.22412 8.26036C6.48454 5.97564 9.24322 4.83328 12.5002 4.83328H12.7554L10.422 2.49994L12.4637 0.458275L18.297 6.29161L12.4637 12.1249L10.422 10.0833L12.7554 7.74994H12.5002C10.0696 7.74994 8.00364 8.60671 6.30225 10.3203C4.60086 12.0338 3.75016 14.118 3.75016 16.5729C3.75016 17.2048 3.82308 17.8246 3.96891 18.4322C4.11475 19.0399 4.3335 19.6354 4.62516 20.2187L2.43766 22.4062ZM12.5366 32.5416L6.70329 26.7083L12.5366 20.8749L14.5783 22.9166L12.245 25.2499H12.5002C14.9307 25.2499 16.9967 24.3932 18.6981 22.6796C20.3995 20.9661 21.2502 18.8819 21.2502 16.427C21.2502 15.7951 21.1772 15.1753 21.0314 14.5677C20.8856 13.96 20.6668 13.3645 20.3752 12.7812L22.5627 10.5937C23.0974 11.5173 23.4984 12.4652 23.7658 13.4374C24.0331 14.4097 24.1668 15.4062 24.1668 16.427C24.1668 19.684 23.0366 22.4548 20.7762 24.7395C18.5158 27.0243 15.7571 28.1666 12.5002 28.1666H12.245L14.5783 30.4999L12.5366 32.5416Z" fill="white"/>
</svg>
